# File created by Blade
# Date/Time:  Tue Jan 27 20:02:37 2015
# Frame Rate: 120.000 fps
#------------------------------------------------------
:FULLY-SPECIFIED
:DEGREES
1979
root 8.196871 32.328530 4.330178 -7.173650 -11.873976 -8.380118
Spine 6.670058 8.687595 4.134581
Head 16.210414 -5.868075 4.706175
LeftShoulder -13.555088 -1.853138 29.104768
LeftArm -8.434737 -6.310429 -79.640338
LeftForeArm -12.865435 -0.000000 120.681173
LeftHand 10.814422 -0.000000 -9.938523
LeftHandThumb1 -26.253704 0.000000 33.147579
RightShoulder -18.407499 -16.516748 -22.479295
RightArm 9.630475 -21.404106 87.529907
RightForeArm -13.430163 0.000000 9.023372
RightHand 18.214079 -0.000000 8.198445
RightHandThumb1 -24.326973 -0.000000 -32.862282
LeftUpLeg 15.214594 10.230547 -1.588100
LeftLeg -2.106202 -0.000000 0.000000
LeftFoot -19.830850 20.414721 -15.356500
LeftToeBase 19.504238 -0.000000 -0.000000
RightUpLeg -74.027356 -37.822475 40.719239
RightLeg 91.097202 -0.000000 -0.000000
RightFoot 25.379842 -30.291004 18.465704
RightToeBase 19.836439 -0.000000 -0.000000
1980
root 8.201669 32.322479 4.345094 -7.207239 -11.997206 -8.353973
Spine 6.686854 8.832098 4.125325
Head 16.185753 -5.906927 4.666909
LeftShoulder -13.587331 -1.845125 29.101598
LeftArm -8.429671 -6.228007 -79.616490
LeftForeArm -12.914663 -0.000000 120.766864
LeftHand 10.788378 0.000000 -9.936145
LeftHandThumb1 -26.253704 0.000000 33.147579
RightShoulder -18.356769 -16.519892 -22.518395
RightArm 9.533723 -21.408506 87.569526
RightForeArm -13.417425 -0.000000 9.050920
RightHand 18.229373 -0.000000 8.176613
RightHandThumb1 -24.326973 -0.000000 -32.862282
LeftUpLeg 15.255644 10.309688 -1.617889
LeftLeg -2.055898 -0.000000 0.000000
LeftFoot -19.922719 20.460442 -15.374372
LeftToeBase 19.555335 -0.000000 -0.000000
RightUpLeg -75.448827 -38.611601 42.656606
RightLeg 91.180883 -0.000000 -0.000000
RightFoot 25.634365 -29.988938 18.360080
RightToeBase 20.073928 -0.000000 -0.000000
1981
root 8.204760 32.316529 4.359977 -7.241424 -12.112974 -8.320250
Spine 6.700124 8.983160 4.091886
Head 16.165291 -5.922057 4.673081
LeftShoulder -13.613842 -1.794688 29.123416
LeftArm -8.387595 -6.151261 -79.626373
LeftForeArm -12.932916 -0.000000 120.842790
LeftHand 10.812070 0.000000 -9.920048
LeftHandThumb1 -26.253704 0.000000 33.147579
RightShoulder -18.326019 -16.555475 -22.514182
RightArm 9.489104 -21.413476 87.585556
RightForeArm -13.433005 -0.000000 9.046621
RightHand 18.245852 -0.000000 8.131560
RightHandThumb1 -24.326973 -0.000000 -32.862282
LeftUpLeg 15.294903 10.406332 -1.639075
LeftLeg -2.008681 -0.000000 0.000000
LeftFoot -19.991756 20.410198 -15.485266
LeftToeBase 19.481546 -0.000000 -0.000000
RightUpLeg -76.843431 -39.314098 44.537789
RightLeg 91.286863 -0.000000 -0.000000
RightFoot 25.717110 -29.829706 18.506377
RightToeBase 19.735328 -0.000000 -0.000000
1982
root 8.206972 32.311119 4.374272 -7.260560 -12.244349 -8.287139
Spine 6.691411 9.165337 4.058798
Head 16.162159 -5.955140 4.688561
LeftShoulder -13.614766 -1.751146 29.137935
LeftArm -8.359897 -6.111155 -79.640174
LeftForeArm -12.944835 -0.000000 120.928413
LeftHand 10.767851 -0.000000 -9.943631
LeftHandThumb1 -26.253704 0.000000 33.147579
RightShoulder -18.340063 -16.628616 -22.484854
RightArm 9.516844 -21.488170 87.567487
RightForeArm -13.427886 -0.000000 8.987839
RightHand 18.264142 -0.000000 8.085274
RightHandThumb1 -24.326973 -0.000000 -32.862282
LeftUpLeg 15.318466 10.474294 -1.674397
LeftLeg -1.952144 -0.000000 0.000000
LeftFoot -20.068004 20.449993 -15.510979
LeftToeBase 19.466622 -0.000000 -0.000000
RightUpLeg -78.176414 -39.895973 46.329105
RightLeg 91.369419 -0.000000 -0.000000
RightFoot 25.708252 -29.761629 18.756617
RightToeBase 20.159262 -0.000000 -0.000000
1983
root 8.209741 32.305598 4.387663 -7.292218 -12.354448 -8.250519
Spine 6.699819 9.315033 4.024859
Head 16.154325 -5.973640 4.703989
LeftShoulder -13.605808 -1.678895 29.144361
LeftArm -8.315405 -6.117157 -79.670036
LeftForeArm -12.926843 -0.000000 121.012973
LeftHand 10.741040 -0.000000 -9.944449
LeftHandThumb1 -26.253704 0.000000 33.147579
RightShoulder -18.344184 -16.686890 -22.469868
RightArm 9.545822 -21.582609 87.554071
RightForeArm -13.554303 -0.000000 8.913352
RightHand 18.266915 0.000000 8.477804
RightHandThumb1 -24.326973 -0.000000 -32.862282
LeftUpLeg 15.346263 10.519679 -1.715328
LeftLeg -1.886774 -0.000000 0.000000
LeftFoot -20.132976 20.505835 -15.494958
LeftToeBase 19.383222 -0.000000 -0.000000
RightUpLeg -79.465981 -40.430719 48.035007
RightLeg 91.426584 -0.000000 -0.000000
RightFoot 26.020836 -29.587060 18.474553
RightToeBase 20.145152 -0.000000 -0.000000
1984
root 8.214391 32.299976 4.400853 -7.325925 -12.503737 -8.216669
Spine 6.711540 9.475351 4.012979
Head 16.163445 -5.994174 4.711881
LeftShoulder -13.615637 -1.614982 29.145548
LeftArm -8.291579 -6.151010 -79.711815
LeftForeArm -12.905287 0.000000 121.081826
LeftHand 10.709507 -0.000000 -9.987049
LeftHandThumb1 -26.253704 0.000000 33.147579
RightShoulder -18.323333 -16.713180 -22.472618
RightArm 9.564998 -21.658698 87.534101
RightForeArm -13.565530 -0.000000 8.827577
RightHand 18.268719 -0.000000 8.553000
RightHandThumb1 -24.326973 -0.000000 -32.862282
LeftUpLeg 15.388639 10.570657 -1.759311
LeftLeg -1.835032 -0.000000 0.000000
LeftFoot -20.240361 20.561012 -15.562383
LeftToeBase 19.278786 -0.000000 -0.000000
RightUpLeg -80.594524 -40.833291 49.522502
RightLeg 91.505004 -0.000000 -0.000000
RightFoot 26.148159 -29.371125 18.544931
RightToeBase 20.077949 -0.000000 -0.000000
1985
root 8.213846 32.295094 4.416469 -7.326340 -12.682055 -8.181470
Spine 6.662569 9.690497 3.972293
Head 16.187113 -6.001304 4.763785
LeftShoulder -13.609031 -1.593644 29.166753
LeftArm -8.314176 -6.178774 -79.723142
LeftForeArm -12.927148 -0.000000 121.149192
LeftHand 10.695303 -0.000000 -10.008400
LeftHandThumb1 -26.253704 0.000000 33.147579
RightShoulder -18.341309 -16.744562 -22.430883
RightArm 9.556095 -21.700796 87.514544
RightForeArm -13.474037 -0.000000 8.761805
RightHand 18.240203 -0.000000 8.090880
RightHandThumb1 -24.326973 -0.000000 -32.862282
LeftUpLeg 15.427200 10.650304 -1.789712
LeftLeg -1.840362 -0.000000 0.000000
LeftFoot -20.302567 20.599194 -15.652036
LeftToeBase 19.390920 -0.000000 -0.000000
RightUpLeg -81.584378 -41.091879 50.831513
RightLeg 91.560870 -0.000000 -0.000000
RightFoot 26.298682 -29.222914 18.663531
RightToeBase 19.989562 -0.000000 -0.000000
1986
root 8.215595 32.289718 4.429811 -7.347989 -12.823661 -8.155828
Spine 6.659691 9.861124 3.957503
Head 16.182737 -5.985941 4.799202
LeftShoulder -13.619989 -1.582740 29.170281
LeftArm -8.306806 -6.227913 -79.753051
LeftForeArm -12.955973 0.000000 121.193419
LeftHand 10.658917 -0.000000 -10.062937
LeftHandThumb1 -26.253704 0.000000 33.147579
RightShoulder -18.343376 -16.716186 -22.420344
RightArm 9.479551 -21.686798 87.516553
RightForeArm -13.513553 0.000000 8.728004
RightHand 18.254953 0.000000 8.122397
RightHandThumb1 -24.326973 -0.000000 -32.862282
LeftUpLeg 15.473786 10.658121 -1.828791
LeftLeg -1.823366 -0.000000 0.000000
LeftFoot -20.373076 20.698409 -15.678023
LeftToeBase 19.385217 -0.000000 -0.000000
RightUpLeg -82.445843 -41.318054 51.943689
RightLeg 91.597220 -0.000000 -0.000000
RightFoot 26.475203 -29.056302 18.826417
RightToeBase 20.067527 -0.000000 -0.000000
1987
root 8.220766 32.282643 4.442341 -7.375034 -12.968194 -8.114834
Spine 6.669197 9.994559 3.944255
Head 16.166901 -5.959707 4.808536
LeftShoulder -13.660836 -1.586269 29.184503
LeftArm -8.340648 -6.303161 -79.799326
LeftForeArm -12.994528 -0.000000 121.214813
LeftHand 10.626182 -0.000000 -10.214736
LeftHandThumb1 -26.253704 0.000000 33.147579
RightShoulder -18.327593 -16.717352 -22.442446
RightArm 9.474374 -21.707173 87.521494
RightForeArm -13.496435 -0.000000 8.673091
RightHand 18.237228 0.000000 8.111183
RightHandThumb1 -24.326973 -0.000000 -32.862282
LeftUpLeg 15.517575 10.656937 -1.896034
LeftLeg -1.810043 -0.000000 0.000000
LeftFoot -20.459167 20.823628 -15.718932
LeftToeBase 19.362813 -0.000000 -0.000000
RightUpLeg -83.197013 -41.481611 52.850673
RightLeg 91.644899 -0.000000 -0.000000
RightFoot 26.693423 -28.895909 18.972125
RightToeBase 19.862643 -0.000000 -0.000000
1988
root 8.224041 32.276765 4.456119 -7.398568 -13.106561 -8.082965
Spine 6.669970 10.137897 3.934690
Head 16.152312 -5.933491 4.843882
LeftShoulder -13.707356 -1.601976 29.189210
LeftArm -8.334774 -6.312252 -79.834472
LeftForeArm -12.855737 0.000000 121.205650
LeftHand 10.683410 -0.000000 -10.095613
LeftHandThumb1 -26.253704 0.000000 33.147579
RightShoulder -18.326914 -16.702391 -22.435978
RightArm 9.421604 -21.677461 87.509989
RightForeArm -13.497197 -0.000000 8.665870
RightHand 18.261222 -0.000000 8.190822
RightHandThumb1 -24.326973 -0.000000 -32.862282
LeftUpLeg 15.573011 10.692055 -1.940545
LeftLeg -1.814291 -0.000000 0.000000
LeftFoot -20.519304 20.910217 -15.758480
LeftToeBase 19.332172 -0.000000 -0.000000
RightUpLeg -83.792311 -41.577696 53.557587
RightLeg 91.684626 -0.000000 -0.000000
RightFoot 26.758053 -28.751752 19.239178
RightToeBase 20.250194 -0.000000 -0.000000
1989
root 8.230699 32.271065 4.468378 -7.411646 -13.190396 -8.057187
Spine 6.659536 10.213089 3.937296
Head 16.143027 -5.879849 4.866611
LeftShoulder -13.755590 -1.635033 29.168322
LeftArm -8.347293 -6.343379 -79.838999
LeftForeArm -12.819000 -0.000000 121.198565
LeftHand 10.669950 -0.000000 -10.091409
LeftHandThumb1 -26.253704 0.000000 33.147579
RightShoulder -18.308700 -16.705044 -22.451073
RightArm 9.399771 -21.635249 87.514796
RightForeArm -13.456917 -0.000000 8.629070
RightHand 18.278501 -0.000000 8.099779
RightHandThumb1 -24.326973 -0.000000 -32.862282
LeftUpLeg 15.605100 10.684138 -1.992188
LeftLeg -1.811787 -0.000000 0.000000
LeftFoot -20.593098 20.994644 -15.808717
LeftToeBase 19.324178 -0.000000 -0.000000
RightUpLeg -84.302376 -41.633725 54.089345
RightLeg 91.718235 -0.000000 -0.000000
RightFoot 26.784010 -28.683816 19.459812
RightToeBase 20.297953 -0.000000 -0.000000
1990
root 8.235762 32.265802 4.479627 -7.430585 -13.314132 -8.023714
Spine 6.661039 10.349334 3.934569
Head 16.130633 -5.838523 4.906899
LeftShoulder -13.772740 -1.696761 29.170175
LeftArm -8.389296 -6.394614 -79.846774
LeftForeArm -12.788262 -0.000000 121.190958
LeftHand 10.620590 -0.000000 -10.097717
LeftHandThumb1 -26.253704 0.000000 33.147579
RightShoulder -18.303293 -16.674759 -22.457641
RightArm 9.322289 -21.567068 87.528652
RightForeArm -13.482160 -0.000000 8.634092
RightHand 18.288525 -0.000000 8.075910
RightHandThumb1 -24.326973 -0.000000 -32.862282
LeftUpLeg 15.646932 10.720102 -2.037728
LeftLeg -1.810018 -0.000000 0.000000
LeftFoot -20.657348 21.040139 -15.880964
LeftToeBase 19.365044 -0.000000 -0.000000
RightUpLeg -84.622210 -41.623949 54.411847
RightLeg 91.716559 -0.000000 -0.000000
RightFoot 26.866654 -28.620803 19.524266
RightToeBase 19.765605 -0.000000 -0.000000
